<?xml version="1.0" encoding="utf-8"?>
<!-- Generator: Adobe Illustrator 18.0.0, SVG Export Plug-In . SVG Version: 6.00 Build 0)  -->
<!DOCTYPE svg PUBLIC "-//W3C//DTD SVG 1.1//EN" "http://www.w3.org/Graphics/SVG/1.1/DTD/svg11.dtd">
<svg version="1.1" id="Layer_1" xmlns="http://www.w3.org/2000/svg" xmlns:xlink="http://www.w3.org/1999/xlink" x="0px" y="0px"
	 viewBox="0 0 1600 769.3" enable-background="new 0 0 1600 769.3" xml:space="preserve">
<g id="Bg" transform="translate(0 1.24)">
	<path id="_4" opacity="0.839" fill="#1E62EE" enable-background="new    " d="M1600,768c-4.2,0-8.3,0-12.5-0.1
		c-4.2-0.1-8.3-0.2-12.5-0.4c-8.3-0.4-16.6-1-24.9-1.8c-16.6-1.7-33.1-4.2-49.6-7.4c-33-6.5-65.8-15.9-98.6-27.3
		c-65.6-22.8-131.1-53.7-196.7-83.9c-65.7-29.9-131.4-58.3-197.2-79.1c-65.8-21.2-131.8-34.8-197.9-46
		c-132.2-21.4-265.1-27.5-399.4-13.6c-67.1,6.9-134.6,17.6-202.5,48.5C139.8,588.5,73,644.8,0.1,768c0-256.3,0-512.7,0-769
		C533,14.2,1066.7-0.1,1600-1V768z"/>
	<path id="_3" opacity="0.839" fill="#1E62EE" enable-background="new    " d="M1600,768c-4.2,0-8.3,0-12.5-0.1s-8.3-0.3-12.5-0.6
		c-8.3-0.5-16.6-1.3-24.9-2.4c-16.7-2.2-33.2-5.4-49.5-9.5c-32.9-8.3-65.5-20.3-97.9-34.6c-64.8-28.6-128.5-66.4-191.8-102.2
		c-63.3-35.7-126.3-68.9-189.8-93.8C957.7,499.4,893.9,482,829.5,468c-128.8-27-260-36.5-396.6-19.4c-68.3,8.8-137.9,23-209.9,60.4
		C151.6,548.5,75.2,609.9,0,768C0,511.7,0,255.3,0-1c533,15.2,1066.6,0.9,1600,0V768z"/>
	<path id="_2" opacity="0.722" fill="#1F62EE" enable-background="new    " d="M1600,767c-533.3,0-1010.4-893-1600,0L0-1.2h1600V767
		z"/>
</g>
</svg>
